# xmcd
#
# Track frame offsets:
#	150
#	14521
#	32070
#	51292
#	62434
#	85919
#	103637
#	122983
#	142942
#	155822
#	184137
#
# Disc length: 2881 seconds
#
# Revision: 0
# Processed by: cddbd v1.5.2PL0 Copyright (c) Steve Scherf et al.
# Submitted via: dBpowerAMP V4.0
#
DISCID=940b3f0b
DTITLE=Lonnie Mack - Second Sight
DYEAR=1986
DGENRE=Blues
TTITLE0=Me And My Car
TTITLE1=Rock And Roll Bones
TTITLE2=Tough On Me, Tough On You
TTITLE3=Camp Washington Chili
TTITLE4=Cincinnati Jail
TTITLE5=Rock People
TTITLE6=Buffalo Woman
TTITLE7=Ain't Nobody
TTITLE8=Back On The Road Again
TTITLE9=A Song I Haven't Sung
TTITLE10=DATA
EXTD=
EXTT0=
EXTT1=
EXTT2=
EXTT3=
EXTT4=
EXTT5=
EXTT6=
EXTT7=
EXTT8=
EXTT9=
EXTT10=
PLAYORDER=
